{
  "accessors": [
    {
      "bufferView": 2,
      "componentType": 5126,
      "count": 6601,
      "max": [
        0.14211900532245636,
        0.0359329991042614,
        0.8245270252227783
      ],
      "min": [
        -0.2814269959926605,
        0.010436000302433968,
        0.42535200715065
      ],
      "type": "VEC3"
    },
    {
      "bufferView": 2,
      "byteOffset": 79212,
      "componentType": 5126,
      "count": 6601,
      "max": [
        0.9990360140800476,
        1.0,
        0.9990841150283813
      ],
      "min": [
        -0.9961537718772888,
        -1.0,
        -0.9999876618385315
      ],
      "type": "VEC3"
    },
    {
      "bufferView": 3,
      "componentType": 5126,
      "count": 6601,
      "max": [
        0.9998971223831177,
        0.9779028296470642,
        0.9999439120292664,
        1.0
      ],
      "min": [
        -0.9996859431266785,
        -0.9946626424789429,
        -0.9996563792228699,
        -1.0
      ],
      "type": "VEC4"
    },
    {
      "bufferView": 1,
      "componentType": 5126,
      "count": 6601,
      "max": [
        0.9960939884185791,
        0.9899510145187378
      ],
      "min": [
        0.0039059999398887157,
        0.0039059999398887157
      ],
      "type": "VEC2"
    },
    {
      "bufferView": 0,
      "componentType": 5125,
      "count": 9564,
      "type": "SCALAR"
    },
    {
      "bufferView": 2,
      "byteOffset": 158424,
      "componentType": 5126,
      "count": 4639,
      "max": [
        0.29269400238990784,
        0.36422300338745117,
        0.4377099871635437
      ],
      "min": [
        -0.14946399629116058,
        0.012616000138223171,
        -0.04104800149798393
      ],
      "type": "VEC3"
    },
    {
      "bufferView": 2,
      "byteOffset": 214092,
      "componentType": 5126,
      "count": 4639,
      "max": [
        0.9995667338371277,
        1.0,
        0.9982277750968933
      ],
      "min": [
        -0.9981479048728943,
        -1.0,
        -0.9999815821647644
      ],
      "type": "VEC3"
    },
    {
      "bufferView": 3,
      "byteOffset": 105616,
      "componentType": 5126,
      "count": 4639,
      "max": [
        0.9982277154922485,
        1.0,
        0.9997830390930176,
        1.0
      ],
      "min": [
        -0.9999815821647644,
        -1.0,
        -0.9990670680999756,
        -1.0
      ],
      "type": "VEC4"
    },
    {
      "bufferView": 1,
      "byteOffset": 52808,
      "componentType": 5126,
      "count": 4639,
      "max": [
        0.9951170086860657,
        0.9960939884185791
      ],
      "min": [
        0.0039059999398887157,
        0.0039059999398887157
      ],
      "type": "VEC2"
    },
    {
      "bufferView": 0,
      "byteOffset": 38256,
      "componentType": 5125,
      "count": 6804,
      "type": "SCALAR"
    },
    {
      "bufferView": 2,
      "byteOffset": 269760,
      "componentType": 5126,
      "count": 3477,
      "max": [
        0.4075309932231903,
        0.3112429976463318,
        1.0109050273895264
      ],
      "min": [
        0.033438000828027725,
        0.01285799965262413,
        0.5675830245018005
      ],
      "type": "VEC3"
    },
    {
      "bufferView": 2,
      "byteOffset": 311484,
      "componentType": 5126,
      "count": 3477,
      "max": [
        0.9998179078102112,
        1.0,
        0.999920666217804
      ],
      "min": [
        -0.9991378784179688,
        -1.0,
        -0.9989494681358337
      ],
      "type": "VEC3"
    },
    {
      "bufferView": 3,
      "byteOffset": 179840,
      "componentType": 5126,
      "count": 3477,
      "max": [
        0.9989954829216003,
        1.0,
        0.9968370795249939,
        1.0
      ],
      "min": [
        -0.9999206066131592,
        -1.0,
        -0.999592661857605,
        -1.0
      ],
      "type": "VEC4"
    },
    {
      "bufferView": 1,
      "byteOffset": 89920,
      "componentType": 5126,
      "count": 3477,
      "max": [
        0.9904990196228027,
        0.9960939884185791
      ],
      "min": [
        0.0039059999398887157,
        0.0039059999398887157
      ],
      "type": "VEC2"
    },
    {
      "bufferView": 0,
      "byteOffset": 65472,
      "componentType": 5125,
      "count": 5142,
      "type": "SCALAR"
    },
    {
      "bufferView": 2,
      "byteOffset": 353208,
      "componentType": 5126,
      "count": 36,
      "max": [
        0.5098710060119629,
        0.014996999874711037,
        1.174064040184021
      ],
      "min": [
        -0.4412580132484436,
        0.014996999874711037,
        -0.17406399548053741
      ],
      "type": "VEC3"
    },
    {
      "bufferView": 2,
      "byteOffset": 353640,
      "componentType": 5126,
      "count": 36,
      "max": [
        0.0,
        1.0,
        0.0
      ],
      "min": [
        0.0,
        1.0,
        0.0
      ],
      "type": "VEC3"
    },
    {
      "bufferView": 3,
      "byteOffset": 235472,
      "componentType": 5126,
      "count": 36,
      "max": [
        0.9999992847442627,
        0.0,
        0.01836758479475975,
        1.0
      ],
      "min": [
        0.9994815587997437,
        0.0,
        -0.032198466360569,
        1.0
      ],
      "type": "VEC4"
    },
    {
      "bufferView": 1,
      "byteOffset": 117736,
      "componentType": 5126,
      "count": 36,
      "max": [
        0.699895977973938,
        0.9980469942092896
      ],
      "min": [
        0.0019529999699443579,
        0.0019529999699443579
      ],
      "type": "VEC2"
    },
    {
      "bufferView": 0,
      "byteOffset": 86040,
      "componentType": 5125,
      "count": 150,
      "type": "SCALAR"
    }
  ],
  "asset": {
    "extras": {
      "author": "Andy Woodhead (https://sketchfab.com/Andywoodhead)",
      "license": "CC-BY-4.0 (http://creativecommons.org/licenses/by/4.0/)",
      "source": "https://sketchfab.com/3d-models/stone-masons-workshop-free-game-asset-ef55c796859a4da6ad7124fb5280e197",
      "title": "Stone masons workshop - free game asset"
    },
    "generator": "Sketchfab-15.19.0",
    "version": "2.0"
  },
  "bufferViews": [
    {
      "buffer": 0,
      "byteLength": 86640,
      "name": "floatBufferViews",
      "target": 34963
    },
    {
      "buffer": 0,
      "byteLength": 118024,
      "byteOffset": 86640,
      "byteStride": 8,
      "name": "floatBufferViews",
      "target": 34962
    },
    {
      "buffer": 0,
      "byteLength": 354072,
      "byteOffset": 204664,
      "byteStride": 12,
      "name": "floatBufferViews",
      "target": 34962
    },
    {
      "buffer": 0,
      "byteLength": 236048,
      "byteOffset": 558736,
      "byteStride": 16,
      "name": "floatBufferViews",
      "target": 34962
    }
  ],
  "buffers": [
    {
      "byteLength": 794784,
      "uri": "scene.bin"
    }
  ],
  "extensionsUsed": [
    "KHR_materials_specular"
  ],
  "images": [
    {
      "uri": "textures/floor_baseColor.png"
    },
    {
      "uri": "textures/floor_metallicRoughness.png"
    },
    {
      "uri": "textures/floor_normal.png"
    },
    {
      "uri": "textures/Bench_01_baseColor.jpeg"
    },
    {
      "uri": "textures/Bench_01_metallicRoughness.png"
    },
    {
      "uri": "textures/Bench_01_normal.png"
    },
    {
      "uri": "textures/Bench_02_baseColor.jpeg"
    },
    {
      "uri": "textures/Bench_02_metallicRoughness.png"
    },
    {
      "uri": "textures/Bench_02_normal.png"
    },
    {
      "uri": "textures/drafting_tools_baseColor.jpeg"
    },
    {
      "uri": "textures/drafting_tools_metallicRoughness.png"
    },
    {
      "uri": "textures/drafting_tools_normal.png"
    }
  ],
  "materials": [
    {
      "alphaMode": "BLEND",
      "doubleSided": true,
      "name": "floor",
      "normalTexture": {
        "index": 2
      },
      "occlusionTexture": {
        "index": 1
      },
      "pbrMetallicRoughness": {
        "baseColorTexture": {
          "index": 0
        },
        "metallicRoughnessTexture": {
          "index": 1
        }
      }
    },
    {
      "doubleSided": true,
      "extensions": {
        "KHR_materials_specular": {
          "specularColorFactor": [
            1.0,
            1.0,
            1.0
          ],
          "specularFactor": 0.0
        }
      },
      "name": "Bench_01",
      "normalTexture": {
        "index": 5
      },
      "occlusionTexture": {
        "index": 4
      },
      "pbrMetallicRoughness": {
        "baseColorTexture": {
          "index": 3
        },
        "metallicRoughnessTexture": {
          "index": 4
        }
      }
    },
    {
      "doubleSided": true,
      "extensions": {
        "KHR_materials_specular": {
          "specularColorFactor": [
            1.0,
            1.0,
            1.0
          ],
          "specularFactor": 0.0
        }
      },
      "name": "Bench_02",
      "normalTexture": {
        "index": 8
      },
      "occlusionTexture": {
        "index": 7
      },
      "pbrMetallicRoughness": {
        "baseColorTexture": {
          "index": 6
        },
        "metallicRoughnessTexture": {
          "index": 7
        }
      }
    },
    {
      "doubleSided": true,
      "extensions": {
        "KHR_materials_specular": {
          "specularColorFactor": [
            1.0,
            1.0,
            1.0
          ],
          "specularFactor": 0.0
        }
      },
      "name": "drafting_tools",
      "normalTexture": {
        "index": 11
      },
      "occlusionTexture": {
        "index": 10
      },
      "pbrMetallicRoughness": {
        "baseColorTexture": {
          "index": 9
        },
        "metallicRoughnessTexture": {
          "index": 10
        }
      }
    }
  ],
  "meshes": [
    {
      "name": "defaultMaterial",
      "primitives": [
        {
          "attributes": {
            "NORMAL": 1,
            "POSITION": 0,
            "TANGENT": 2,
            "TEXCOORD_0": 3
          },
          "indices": 4,
          "material": 3,
          "mode": 4
        }
      ]
    },
    {
      "name": "defaultMaterial",
      "primitives": [
        {
          "attributes": {
            "NORMAL": 6,
            "POSITION": 5,
            "TANGENT": 7,
            "TEXCOORD_0": 8
          },
          "indices": 9,
          "material": 2,
          "mode": 4
        }
      ]
    },
    {
      "name": "defaultMaterial",
      "primitives": [
        {
          "attributes": {
            "NORMAL": 11,
            "POSITION": 10,
            "TANGENT": 12,
            "TEXCOORD_0": 13
          },
          "indices": 14,
          "material": 1,
          "mode": 4
        }
      ]
    },
    {
      "name": "defaultMaterial",
      "primitives": [
        {
          "attributes": {
            "NORMAL": 16,
            "POSITION": 15,
            "TANGENT": 17,
            "TEXCOORD_0": 18
          },
          "indices": 19,
          "material": 0,
          "mode": 4
        }
      ]
    }
  ],
  "nodes": [
    {
      "children": [
        1
      ],
      "matrix": [
        1.0,
        0.0,
        0.0,
        0.0,
        0.0,
        2.220446049250313e-16,
        -1.0,
        0.0,
        0.0,
        1.0,
        2.220446049250313e-16,
        0.0,
        0.0,
        0.0,
        0.0,
        1.0
      ],
      "name": "Sketchfab_model"
    },
    {
      "children": [
        2,
        4,
        6,
        8
      ],
      "matrix": [
        1.0,
        0.0,
        0.0,
        0.0,
        0.0,
        -4.371139006309477e-08,
        0.999999999999999,
        0.0,
        0.0,
        -0.999999999999999,
        -4.371139006309477e-08,
        0.0,
        0.0,
        0.0,
        0.0,
        1.0
      ],
      "name": "Collada visual scene group"
    },
    {
      "children": [
        3
      ],
      "name": "drafting"
    },
    {
      "mesh": 0,
      "name": "defaultMaterial"
    },
    {
      "children": [
        5
      ],
      "name": "Bench"
    },
    {
      "mesh": 1,
      "name": "defaultMaterial"
    },
    {
      "children": [
        7
      ],
      "name": "Bench"
    },
    {
      "mesh": 2,
      "name": "defaultMaterial"
    },
    {
      "children": [
        9
      ],
      "name": "floor"
    },
    {
      "mesh": 3,
      "name": "defaultMaterial"
    }
  ],
  "samplers": [
    {
      "magFilter": 9729,
      "minFilter": 9987,
      "wrapS": 10497,
      "wrapT": 10497
    }
  ],
  "scene": 0,
  "scenes": [
    {
      "name": "Sketchfab_Scene",
      "nodes": [
        0
      ]
    }
  ],
  "textures": [
    {
      "sampler": 0,
      "source": 0
    },
    {
      "sampler": 0,
      "source": 1
    },
    {
      "sampler": 0,
      "source": 2
    },
    {
      "sampler": 0,
      "source": 3
    },
    {
      "sampler": 0,
      "source": 4
    },
    {
      "sampler": 0,
      "source": 5
    },
    {
      "sampler": 0,
      "source": 6
    },
    {
      "sampler": 0,
      "source": 7
    },
    {
      "sampler": 0,
      "source": 8
    },
    {
      "sampler": 0,
      "source": 9
    },
    {
      "sampler": 0,
      "source": 10
    },
    {
      "sampler": 0,
      "source": 11
    }
  ]
}
