<svg xmlns="http://www.w3.org/2000/svg" version="1.1" xmlns:xlink="http://www.w3.org/1999/xlink" xmlns:svgjs="http://svgjs.dev/svgjs" width="2000" height="1025" viewBox="0 0 2000 1025"><g transform="matrix(1,0,0,1,-1.2121212121212466,1.0803224825457391)"><svg viewBox="0 0 396 203" data-background-color="#fce44d" preserveAspectRatio="xMidYMid meet" height="1025" width="2000" xmlns="http://www.w3.org/2000/svg" xmlns:xlink="http://www.w3.org/1999/xlink"><g id="tight-bounds" transform="matrix(1,0,0,1,0.2400000000000091,-0.2139565502017433)"><svg viewBox="0 0 395.52 203.42791196704076" height="203.42791196704076" width="395.52"><g><svg viewBox="0 0 395.52 203.42791196704076" height="203.42791196704076" width="395.52"><g transform="matrix(1,0,0,1,0,151.36039647408302)"><svg viewBox="0 0 395.52 52.06751549295774" height="52.06751549295774" width="395.52"><g id="textblocktransform"><svg viewBox="0 0 395.52 52.06751549295774" height="52.06751549295774" width="395.52" id="textblock"><g><svg viewBox="0 0 395.52 52.06751549295774" height="52.06751549295774" width="395.52"><g transform="matrix(1,0,0,1,0,0)"><svg width="395.52" viewBox="3.0999999046325684 -35 266.2200012207031 35.04999923706055" height="52.06751549295774" data-palette-color="#374151"><path d="M18.05 0L6.7 0Q5.3 0 4.2-1.05 3.1-2.1 3.1-3.6L3.1-3.6 3.1-31.4Q3.1-32.85 4.2-33.93 5.3-35 6.7-35L6.7-35 18.05-35Q19.6-35 20.63-33.93 21.65-32.85 21.65-31.4L21.65-31.4 21.65-24.9 17-23.85 17-28.55Q17-29.25 16.53-29.8 16.05-30.35 15.25-30.35L15.25-30.35 9.55-30.35Q8.85-30.35 8.3-29.8 7.75-29.25 7.75-28.55L7.75-28.55 7.75-6.45Q7.75-5.65 8.3-5.15 8.85-4.65 9.55-4.65L9.55-4.65 15.25-4.65Q16.05-4.65 16.53-5.15 17-5.65 17-6.45L17-6.45 17-10.1 21.65-11.2 21.65-3.6Q21.65-2.1 20.63-1.05 19.6 0 18.05 0L18.05 0ZM39.7 0L28.35 0Q26.95 0 25.9-1.05 24.85-2.1 24.85-3.65L24.85-3.65 24.85-31.35Q24.85-32.9 25.9-33.95 26.95-35 28.35-35L28.35-35 39.7-35Q41.3-35 42.32-33.95 43.35-32.9 43.35-31.35L43.35-31.35 43.35-3.65Q43.35-2.1 42.32-1.05 41.3 0 39.7 0L39.7 0ZM31.2-4.6L31.2-4.6 36.85-4.6Q37.7-4.6 38.22-5.15 38.75-5.7 38.75-6.5L38.75-6.5 38.75-28.5Q38.75-29.35 38.22-29.88 37.7-30.4 36.85-30.4L36.85-30.4 31.2-30.4Q30.5-30.4 29.97-29.88 29.45-29.35 29.45-28.5L29.45-28.5 29.45-6.5Q29.45-5.7 29.97-5.15 30.5-4.6 31.2-4.6ZM62.05 0L47.05 0 47.05-35 62.05-35Q63.5-35 64.55-33.95 65.6-32.9 65.6-31.4L65.6-31.4 65.6-3.6Q65.6-2.1 64.55-1.05 63.5 0 62.05 0L62.05 0ZM51.7-30.35L51.7-4.65 59.2-4.65Q59.9-4.65 60.45-5.18 61-5.7 61-6.45L61-6.45 61-28.55Q61-29.3 60.45-29.83 59.9-30.35 59.2-30.35L59.2-30.35 51.7-30.35ZM87.89 0L69.29 0 69.29-35 87.89-35 87.89-30.4 73.94-30.4 73.94-21.7 83.24-21.7 82.19-17.05 73.94-17.05 73.94-4.65 87.89-4.65 87.89 0ZM102.79 0L97.94 0 91.09-35 95.74-35 100.39-11.35 105.04-35 109.69-35 114.29-11.35 118.94-35 123.59-35 116.74 0 111.89 0 107.34-23.2 102.79 0ZM130.94 0L126.29 0 126.29-35 130.94-35 130.94 0ZM149.14 0L134.14 0 134.14-35 149.14-35Q150.59-35 151.64-33.95 152.69-32.9 152.69-31.4L152.69-31.4 152.69-3.6Q152.69-2.1 151.64-1.05 150.59 0 149.14 0L149.14 0ZM138.79-30.35L138.79-4.65 146.29-4.65Q146.99-4.65 147.54-5.18 148.09-5.7 148.09-6.45L148.09-6.45 148.09-28.55Q148.09-29.3 147.54-29.83 146.99-30.35 146.29-30.35L146.29-30.35 138.79-30.35ZM180.83 0L169.48 0Q168.08 0 166.98-1.05 165.88-2.1 165.88-3.6L165.88-3.6 165.88-31.4Q165.88-32.85 166.98-33.93 168.08-35 169.48-35L169.48-35 180.83-35Q182.38-35 183.41-33.93 184.43-32.85 184.43-31.4L184.43-31.4 184.43-24.9 179.78-23.85 179.78-28.55Q179.78-29.25 179.31-29.8 178.83-30.35 178.03-30.35L178.03-30.35 172.33-30.35Q171.63-30.35 171.08-29.8 170.53-29.25 170.53-28.55L170.53-28.55 170.53-6.45Q170.53-5.65 171.08-5.15 171.63-4.65 172.33-4.65L172.33-4.65 178.03-4.65Q178.83-4.65 179.31-5.15 179.78-5.65 179.78-6.45L179.78-6.45 179.78-10.1 184.43-11.2 184.43-3.6Q184.43-2.1 183.41-1.05 182.38 0 180.83 0L180.83 0ZM191.28 0.05L186.63 0.05 193.68-34.95 198.23-34.95 205.18 0.05 200.53 0.05 199.18-6.5 192.53-6.5 191.28 0.05ZM195.98-23.55L193.43-11.1 198.38-11.1 195.98-23.55ZM212.43 0L207.78 0 207.78-35 222.78-35Q224.23-35 225.28-33.95 226.33-32.9 226.33-31.4L226.33-31.4 226.33-20.65Q226.33-19.15 225.28-18.1 224.23-17.05 222.78-17.05L222.78-17.05 221.73-17.05 226.33 0 221.73 0 217.08-17.05 212.43-17.05 212.43 0ZM212.43-30.35L212.43-21.7 219.93-21.7Q220.63-21.7 221.18-22.23 221.73-22.75 221.73-23.5L221.73-23.5 221.73-28.55Q221.73-29.3 221.18-29.83 220.63-30.35 219.93-30.35L219.93-30.35 212.43-30.35ZM234.97 0L230.32 0 230.32-35 245.32-35Q246.77-35 247.82-33.95 248.87-32.9 248.87-31.4L248.87-31.4 248.87-20.65Q248.87-19.15 247.82-18.1 246.77-17.05 245.32-17.05L245.32-17.05 244.27-17.05 248.87 0 244.27 0 239.62-17.05 234.97-17.05 234.97 0ZM234.97-30.35L234.97-21.7 242.47-21.7Q243.17-21.7 243.72-22.23 244.27-22.75 244.27-23.5L244.27-23.5 244.27-28.55Q244.27-29.3 243.72-29.83 243.17-30.35 242.47-30.35L242.47-30.35 234.97-30.35ZM262.47 0L257.82 0 257.82-17 250.97-35 255.62-35 260.17-23.05 264.67-35 269.32-35 262.47-17 262.47 0Z" opacity="1" transform="matrix(1,0,0,1,0,0)" fill="#374151" class="undefined-text-0" data-fill-palette-color="primary" id="text-0"></path></svg></g></svg></g></svg></g></svg></g><g transform="matrix(1,0,0,1,134.37169255047397,0)"><svg viewBox="0 0 126.77661489905203 126.77661489905203" height="126.77661489905203" width="126.77661489905203"><g><svg></svg></g><g id="icon-0"><svg viewBox="0 0 126.77661489905203 126.77661489905203" height="126.77661489905203" width="126.77661489905203"><g><path d="M0 63.388c0-35.008 28.38-63.388 63.388-63.388 35.008 0 63.388 28.38 63.389 63.388 0 35.008-28.38 63.388-63.389 63.389-35.008 0-63.388-28.38-63.388-63.389zM63.388 122.081c32.415 0 58.693-26.278 58.693-58.693 0-32.415-26.278-58.693-58.693-58.693-32.415 0-58.693 26.278-58.693 58.693 0 32.415 26.278 58.693 58.693 58.693z" data-fill-palette-color="tertiary" fill="#000000" stroke="transparent"></path></g><g transform="matrix(1,0,0,1,26.705610598835797,35.66301331819038)"><svg viewBox="0 0 73.36539370138044 55.45058826267127" height="55.45058826267127" width="73.36539370138044"><g><svg xmlns="http://www.w3.org/2000/svg" xmlns:xlink="http://www.w3.org/1999/xlink" version="1.1" x="0" y="0" viewBox="6.5 18 86 65" enable-background="new 0 0 100 100" xml:space="preserve" height="55.45058826267127" width="73.36539370138044" class="icon-s-0" data-fill-palette-color="accent" id="s-0"><g fill="#000000" data-fill-palette-color="accent"><path d="M35.845 61.275l-10.72-5.09c-1.209-0.572-1.94-1.463-1.94-2.703v-0.318c0-1.24 0.731-2.131 1.94-2.704l10.72-5.089c0.381-0.191 0.731-0.318 1.177-0.318 1.018-0.031 1.94 0.859 1.94 2.004 0 0.922-0.509 1.559-1.336 1.94l-9.606 4.294 9.606 4.295c0.827 0.381 1.336 1.113 1.336 2.004 0 1.177-0.922 2.004-2.1 1.972C36.513 61.562 36.163 61.435 35.845 61.275z" fill="#000000" data-fill-palette-color="accent"></path><path d="M41.889 66.047l12.438-25.988c0.35-0.731 0.922-1.113 1.686-1.113 1.018 0 1.876 0.859 1.876 1.813 0 0.35-0.127 0.7-0.222 0.923L45.229 67.669c-0.35 0.731-0.922 1.113-1.686 1.113-1.018 0-1.876-0.858-1.876-1.813C41.667 66.619 41.793 66.27 41.889 66.047z" fill="#FFFF00" data-fill-palette-color="accent"></path><path d="M64.155 45.371l10.72 5.089c1.208 0.573 1.94 1.464 1.94 2.704v0.318c0 1.24-0.731 2.131-1.94 2.703l-10.72 5.09c-0.381 0.191-0.731 0.318-1.177 0.318-1.018 0.031-1.94-0.859-1.94-2.004 0-0.923 0.509-1.559 1.336-1.94l9.606-4.295-9.606-4.294c-0.827-0.381-1.336-1.113-1.336-2.004 0-1.177 0.923-2.004 2.1-1.973C63.487 45.084 63.837 45.212 64.155 45.371z" fill="#FFFF00" data-fill-palette-color="accent"></path></g><path d="M92.5 21c0-1.657-1.343-3-3-3h-80c-1.657 0-3 1.343-3 3v59c0 1.657 1.343 3 3 3h80c1.657 0 3-1.343 3-3V21zM26 20.833c1.196 0 2.167 0.97 2.167 2.167s-0.97 2.167-2.167 2.167-2.167-0.97-2.167-2.167S24.804 20.833 26 20.833zM20 20.833c1.196 0 2.167 0.97 2.167 2.167s-0.97 2.167-2.167 2.167-2.167-0.97-2.167-2.167S18.804 20.833 20 20.833zM14 20.833c1.196 0 2.167 0.97 2.167 2.167s-0.97 2.167-2.167 2.167-2.167-0.97-2.167-2.167S12.804 20.833 14 20.833zM88.5 79h-78V29h78V79z" fill="#FFFF00" data-fill-palette-color="accent"></path></svg></g></svg></g></svg></g></svg></g><g></g></svg></g><defs></defs></svg><rect width="395.52" height="203.42791196704076" fill="white" stroke="none" visibility="hidden"></rect></g></svg></g></svg>