<?xml version="1.0" standalone="no"?>
<!DOCTYPE svg PUBLIC "-//W3C//DTD SVG 20010904//EN"
 "http://www.w3.org/TR/2001/REC-SVG-20010904/DTD/svg10.dtd">
<svg version="1.0" xmlns="http://www.w3.org/2000/svg"
 width="500.000000pt" height="500.000000pt" viewBox="0 0 500.000000 500.000000"
 preserveAspectRatio="xMidYMid meet">
<metadata>
Created by potrace 1.16, written by Peter Selinger 2001-2019
</metadata>
<g transform="translate(0.000000,500.000000) scale(0.100000,-0.100000)"
fill="#000000" stroke="none">
<path d="M1643 4000 c-87 -18 -163 -75 -206 -155 -30 -55 -32 -221 -3 -275 25
-48 84 -108 128 -131 108 -56 284 -33 359 47 l24 25 -25 20 c-49 39 -55 39
-93 12 -40 -28 -111 -40 -172 -29 -46 9 -110 67 -125 112 -24 70 -9 165 32
215 59 71 195 82 272 21 l28 -21 39 26 c21 14 39 29 39 32 0 15 -58 61 -100
80 -54 23 -140 33 -197 21z"/>
<path d="M2227 4000 c-141 -36 -231 -150 -231 -295 0 -172 123 -296 294 -296
130 -1 224 52 278 155 23 44 27 63 27 141 0 76 -4 97 -25 138 -29 57 -86 112
-144 137 -51 23 -148 32 -199 20z m162 -119 c19 -9 48 -33 65 -54 40 -50 48
-141 18 -209 -29 -67 -80 -101 -158 -106 -127 -8 -209 68 -209 193 1 156 143
244 284 176z"/>
<path d="M2690 3706 l0 -286 120 0 c182 0 265 37 323 145 18 33 22 56 22 140
0 110 -14 151 -71 209 -56 56 -105 70 -256 74 l-138 4 0 -286z m279 164 c54
-27 82 -82 82 -158 1 -127 -52 -182 -189 -198 l-62 -7 0 198 0 198 65 -6 c35
-3 82 -15 104 -27z"/>
<path d="M3250 3705 l0 -285 170 0 170 0 0 45 0 45 -115 0 -115 0 0 50 0 50
101 0 100 0 -3 43 -3 42 -97 3 -98 3 0 99 0 100 115 0 115 0 0 45 0 45 -170 0
-170 0 0 -285z"/>
<path d="M2021 2754 l-73 -187 -72 179 -71 179 -59 3 c-45 2 -57 0 -53 -10 15
-40 231 -546 239 -561 17 -32 32 -4 104 183 38 99 71 180 74 180 3 0 36 -81
74 -180 72 -187 87 -215 104 -183 8 15 224 521 239 561 4 10 -8 12 -53 10
l-59 -3 -71 -178 -72 -177 -73 182 c-47 117 -80 184 -90 186 -11 2 -33 -43
-88 -184z"/>
<path d="M2595 2917 c-3 -7 -4 -134 -3 -282 l3 -270 53 -3 52 -3 0 285 0 286
-50 0 c-32 0 -52 -5 -55 -13z"/>
<path d="M2810 2646 l0 -286 120 0 c182 0 265 37 323 145 18 33 22 56 22 140
0 110 -14 151 -71 209 -56 56 -105 70 -256 74 l-138 4 0 -286z m279 164 c54
-27 82 -82 82 -158 1 -127 -52 -182 -189 -198 l-62 -7 0 198 0 198 65 -6 c35
-3 82 -15 104 -27z"/>
<path d="M1162 2877 c-20 -23 -193 -487 -187 -497 20 -33 42 6 131 235 51 132
93 245 94 251 0 17 -27 25 -38 11z"/>
<path d="M855 2720 c-55 -44 -100 -85 -100 -92 0 -17 185 -167 206 -168 9 0
19 7 23 15 3 10 -22 36 -79 81 -47 36 -85 69 -85 72 0 4 29 28 63 54 97 73
110 87 96 104 -6 8 -14 14 -18 14 -3 -1 -51 -36 -106 -80z"/>
<path d="M1197 2793 c-17 -16 -1 -36 78 -99 l85 -67 -83 -65 c-79 -62 -107
-102 -72 -102 21 0 215 150 215 167 0 11 -197 173 -211 173 -3 0 -9 -3 -12 -7z"/>
<path d="M1403 1876 c-263 -64 -303 -436 -60 -556 54 -27 75 -31 139 -31 47 0
91 6 114 16 54 22 114 65 114 81 0 7 -15 25 -34 39 l-35 26 -41 -27 c-58 -39
-149 -45 -208 -15 -142 73 -131 306 17 363 62 23 162 6 212 -38 13 -12 20 -10
52 12 20 13 37 31 37 39 0 22 -83 73 -146 90 -68 18 -91 18 -161 1z"/>
<path d="M1996 1868 c-20 -31 -246 -543 -246 -557 0 -7 21 -11 54 -11 l54 0
18 45 17 45 119 0 119 0 19 -45 19 -45 56 0 c30 0 55 3 55 6 0 13 -253 575
-261 580 -4 2 -15 -6 -23 -18z m58 -282 c20 -50 36 -94 36 -98 0 -4 -36 -8
-80 -8 l-80 0 21 53 c33 84 62 148 64 145 2 -2 19 -43 39 -92z"/>
<path d="M2347 1863 c-9 -8 -9 -526 -1 -547 4 -12 20 -16 55 -16 l49 0 0 90 0
90 58 0 57 0 45 -88 45 -87 58 -3 c31 -2 57 1 57 5 0 4 -22 50 -49 102 l-48
94 33 29 c38 34 56 81 56 148 0 97 -40 158 -120 180 -41 11 -285 14 -295 3z
m245 -94 c81 -22 91 -136 17 -175 -16 -8 -56 -14 -94 -14 l-65 0 0 100 0 100
53 0 c28 0 69 -5 89 -11z"/>
<path d="M2865 1858 c-3 -7 -4 -135 -3 -283 l3 -270 53 -3 52 -3 0 90 0 91 58
0 58 0 44 -90 44 -90 58 0 c32 0 58 3 58 7 0 3 -23 48 -51 100 l-50 94 27 21
c91 72 83 260 -14 320 -33 21 -52 23 -184 26 -118 3 -149 1 -153 -10z m280
-108 c19 -18 25 -34 25 -66 0 -23 -3 -50 -6 -59 -11 -28 -60 -45 -129 -45
l-65 0 0 101 0 102 75 -5 c61 -4 80 -9 100 -28z"/>
<path d="M3330 1865 c0 -3 44 -72 98 -153 l97 -147 5 -130 5 -130 53 -3 52 -3
0 126 0 125 100 150 c55 82 100 154 100 160 0 6 -25 10 -58 10 l-57 0 -69
-110 -68 -110 -67 107 -66 108 -63 3 c-34 2 -62 0 -62 -3z"/>
</g>
</svg>
